<svg xmlns="http://www.w3.org/2000/svg" xmlns:xlink="http://www.w3.org/1999/xlink" width="55" zoomAndPan="magnify" viewBox="0 0 41.25 44.999999" height="60" preserveAspectRatio="xMidYMid meet" version="1.0"><defs><clipPath id="66faaeff5b"><path d="M 34 14 L 40.511719 14 L 40.511719 27 L 34 27 Z M 34 14 " clip-rule="nonzero"/></clipPath><clipPath id="7285f05b9b"><path d="M 0.839844 18 L 6 18 L 6 29 L 0.839844 29 Z M 0.839844 18 " clip-rule="nonzero"/></clipPath><clipPath id="b85cf619f1"><path d="M 6 0.402344 L 34 0.402344 L 34 28 L 6 28 Z M 6 0.402344 " clip-rule="nonzero"/></clipPath><clipPath id="14e22d3c6b"><path d="M 7 32 L 34 32 L 34 43.863281 L 7 43.863281 Z M 7 32 " clip-rule="nonzero"/></clipPath></defs><g clip-path="url(#66faaeff5b)"><path fill="#f68712" d="M 40.601562 14.90625 C 40.601562 14.90625 36.5625 15.777344 36.667969 20.785156 C 36.773438 25.796875 34.253906 26.183594 34.253906 26.183594 C 36.257812 23.976562 34.125 22.652344 34.566406 19.378906 C 35.273438 14.1875 40.601562 14.90625 40.601562 14.90625 " fill-opacity="1" fill-rule="nonzero"/></g><g clip-path="url(#7285f05b9b)"><path fill="#f68712" d="M 2.628906 22.738281 C 2.460938 20.316406 1.65625 19.109375 0.855469 18.507812 C 3.128906 18.742188 4.515625 20.328125 4.429688 22.113281 C 4.289062 24.898438 3.765625 26.503906 5.09375 28.269531 C 5.09375 28.269531 2.929688 26.957031 2.628906 22.738281 " fill-opacity="1" fill-rule="nonzero"/></g><path fill="#f68712" d="M 7.183594 8.734375 C 8.425781 6.644531 8.453125 5.195312 8.140625 4.253906 C 11.648438 9.90625 5.964844 12.476562 6.050781 14.679688 C 6.050781 14.679688 5.015625 12.375 7.183594 8.734375 " fill-opacity="1" fill-rule="nonzero"/><path fill="#ffffff" d="M 22.171875 17.726562 C 22.726562 17.28125 23.082031 16.601562 23.082031 15.839844 C 23.082031 14.507812 21.992188 13.425781 20.652344 13.425781 C 19.308594 13.425781 18.222656 14.507812 18.222656 15.839844 C 18.222656 16.601562 18.578125 17.28125 19.132812 17.726562 C 13.042969 18.421875 8.214844 23.238281 7.542969 29.304688 L 10.304688 29.304688 C 11.015625 24.253906 15.375 20.363281 20.652344 20.363281 C 25.925781 20.363281 30.289062 24.253906 30.996094 29.304688 L 33.757812 29.304688 C 33.089844 23.238281 28.261719 18.421875 22.171875 17.726562 " fill-opacity="1" fill-rule="nonzero"/><path fill="#ed1c24" d="M 18.125 24.792969 C 17.914062 24.8125 17.480469 31.328125 17.480469 31.328125 C 17.453125 31.84375 17.074219 32.289062 16.558594 32.359375 C 15.925781 32.441406 15.375 31.972656 15.339844 31.359375 C 15.339844 31.359375 14.90625 24.8125 14.695312 24.792969 C 14.464844 24.769531 13.601562 31.515625 13.601562 31.515625 C 13.507812 32.476562 14.039062 33.34375 14.851562 33.738281 C 15.433594 34.023438 15.796875 34.621094 15.757812 35.265625 L 15.578125 38.550781 C 16.113281 38.898438 16.6875 39.191406 17.289062 39.421875 L 17.0625 35.265625 C 17.023438 34.621094 17.386719 34.023438 17.96875 33.738281 C 18.78125 33.34375 19.3125 32.476562 19.21875 31.515625 C 19.21875 31.515625 18.355469 24.769531 18.125 24.792969 Z M 26.347656 31.292969 C 26.339844 31.496094 26.164062 31.652344 25.957031 31.640625 L 25.949219 31.640625 C 25.753906 31.628906 25.601562 31.464844 25.605469 31.269531 C 25.644531 29.710938 25.683594 28.152344 25.722656 26.589844 C 25.730469 26.367188 25.921875 26.191406 26.148438 26.207031 L 26.15625 26.207031 C 26.371094 26.21875 26.539062 26.402344 26.53125 26.617188 C 26.46875 28.175781 26.40625 29.734375 26.347656 31.292969 Z M 24.617188 31.230469 C 24.617188 31.429688 24.453125 31.589844 24.25 31.589844 L 24.246094 31.589844 C 24.042969 31.589844 23.878906 31.429688 23.878906 31.230469 C 23.867188 29.667969 23.855469 28.109375 23.84375 26.546875 C 23.84375 26.328125 24.023438 26.148438 24.242188 26.148438 L 24.25 26.148438 C 24.472656 26.148438 24.652344 26.328125 24.652344 26.546875 C 24.640625 28.109375 24.628906 29.667969 24.617188 31.230469 Z M 22.542969 31.640625 L 22.539062 31.640625 C 22.332031 31.652344 22.15625 31.496094 22.148438 31.292969 C 22.085938 29.734375 22.027344 28.175781 21.964844 26.617188 C 21.957031 26.402344 22.125 26.21875 22.339844 26.207031 C 22.34375 26.207031 22.34375 26.207031 22.347656 26.207031 C 22.574219 26.191406 22.765625 26.367188 22.769531 26.589844 C 22.8125 28.152344 22.851562 29.710938 22.890625 31.269531 C 22.894531 31.464844 22.742188 31.628906 22.542969 31.640625 Z M 20.785156 24.859375 C 20.910156 27.03125 21.035156 29.199219 21.160156 31.371094 C 21.21875 32.347656 21.78125 33.152344 22.554688 33.628906 C 23.304688 34.089844 23.699219 34.945312 23.640625 35.820312 C 23.558594 37.089844 23.488281 38.359375 23.421875 39.628906 C 23.984375 39.453125 24.523438 39.226562 25.039062 38.953125 C 24.980469 37.910156 24.921875 36.863281 24.855469 35.820312 C 24.796875 34.945312 25.1875 34.089844 25.941406 33.628906 C 26.714844 33.152344 27.273438 32.347656 27.332031 31.371094 C 27.460938 29.199219 27.585938 27.03125 27.710938 24.859375 C 25.40625 24.613281 23.089844 24.613281 20.785156 24.859375 " fill-opacity="1" fill-rule="nonzero"/><g clip-path="url(#b85cf619f1)"><path fill="#f68712" d="M 8.015625 24.664062 C 8.695312 23.269531 9.597656 22.003906 10.703125 20.902344 C 11.804688 19.800781 13.070312 18.898438 14.46875 18.214844 C 15.480469 17.722656 16.535156 17.355469 17.628906 17.117188 C 17.457031 16.71875 17.367188 16.285156 17.367188 15.839844 C 17.367188 14.042969 18.839844 12.578125 20.652344 12.578125 C 22.460938 12.578125 23.933594 14.042969 23.933594 15.839844 C 23.933594 16.285156 23.84375 16.71875 23.671875 17.117188 C 24.765625 17.355469 25.824219 17.722656 26.832031 18.214844 C 28.230469 18.898438 29.496094 19.800781 30.601562 20.902344 C 31.207031 21.511719 31.753906 22.167969 32.238281 22.867188 C 31.910156 21.109375 31.710938 18.945312 32.324219 17.847656 C 33.527344 15.699219 33.964844 12.515625 32.726562 10.675781 C 31.914062 12.484375 30.65625 13.640625 29.769531 13.316406 C 28.789062 12.960938 28.5 10.882812 29.417969 8.792969 C 30.9375 5.359375 26.074219 3.601562 30.683594 0.402344 C 30.683594 0.402344 22.222656 1.34375 22.78125 6.929688 C 23.40625 13.203125 16.132812 11.148438 19.148438 5.855469 C 16.253906 6.996094 15.5 8.4375 16.359375 12.359375 C 17.242188 16.398438 13.578125 16.835938 12.03125 14.679688 C 10.363281 12.355469 12.046875 8.976562 12.046875 8.976562 C 6.445312 15 5.207031 21.886719 7.042969 27.3125 C 7.273438 26.402344 7.597656 25.515625 8.015625 24.664062 " fill-opacity="1" fill-rule="nonzero"/></g><g clip-path="url(#14e22d3c6b)"><path fill="#ed1c24" d="M 30.996094 32.199219 C 30.289062 37.25 25.925781 41.136719 20.652344 41.136719 C 15.375 41.136719 11.015625 37.25 10.304688 32.199219 L 7.542969 32.199219 C 8.269531 38.757812 13.859375 43.863281 20.652344 43.863281 C 27.441406 43.863281 33.035156 38.757812 33.757812 32.199219 L 30.996094 32.199219 " fill-opacity="1" fill-rule="nonzero"/></g></svg>