<svg xmlns="http://www.w3.org/2000/svg" xmlns:xlink="http://www.w3.org/1999/xlink" width="155" zoomAndPan="magnify" viewBox="0 0 116.25 41.25" height="55" preserveAspectRatio="xMidYMid meet" version="1.0"><defs><clipPath id="32aa4ac2ed"><path d="M 39 0.351562 L 76 0.351562 L 76 40.511719 L 39 40.511719 Z M 39 0.351562 " clip-rule="nonzero"/></clipPath><clipPath id="29e5b5c742"><path d="M 1.585938 0.351562 L 40 0.351562 L 40 40.511719 L 1.585938 40.511719 Z M 1.585938 0.351562 " clip-rule="nonzero"/></clipPath><clipPath id="0bd1502569"><path d="M 75 0.351562 L 114.285156 0.351562 L 114.285156 40.511719 L 75 40.511719 Z M 75 0.351562 " clip-rule="nonzero"/></clipPath></defs><g clip-path="url(#32aa4ac2ed)"><path fill="#ffffff" d="M 59.230469 40.859375 C 59.246094 37.921875 59.265625 34.886719 59.277344 34.554688 C 59.296875 34.035156 59.332031 33.574219 59.359375 33.171875 C 63.460938 32.292969 66.5625 28.152344 66.5625 23.171875 C 66.5625 17.558594 62.613281 6.542969 57.734375 6.542969 C 57.324219 6.542969 56.921875 6.625 56.53125 6.769531 L 56.519531 6.773438 C 56.386719 6.824219 56.253906 6.882812 56.125 6.945312 L 56.101562 6.957031 C 55.972656 7.019531 55.84375 7.09375 55.71875 7.171875 L 55.691406 7.1875 C 55.566406 7.265625 55.441406 7.351562 55.320312 7.441406 L 55.289062 7.460938 C 55.167969 7.554688 55.046875 7.652344 54.921875 7.757812 L 54.898438 7.78125 C 54.777344 7.886719 54.65625 7.996094 54.535156 8.113281 L 54.515625 8.136719 C 54.394531 8.253906 54.273438 8.378906 54.15625 8.511719 L 54.144531 8.523438 C 52.914062 9.890625 51.835938 11.828125 50.980469 13.933594 L 50.96875 13.964844 C 50.894531 14.144531 50.824219 14.324219 50.753906 14.503906 C 50.742188 14.546875 50.722656 14.585938 50.707031 14.628906 C 50.648438 14.792969 50.585938 14.953125 50.527344 15.117188 C 50.507812 15.179688 50.484375 15.238281 50.464844 15.300781 C 50.410156 15.453125 50.359375 15.605469 50.308594 15.757812 C 50.285156 15.828125 50.261719 15.902344 50.234375 15.976562 C 50.1875 16.117188 50.144531 16.257812 50.101562 16.402344 C 50.074219 16.488281 50.046875 16.570312 50.023438 16.65625 C 49.984375 16.789062 49.945312 16.921875 49.90625 17.058594 C 49.878906 17.148438 49.851562 17.242188 49.828125 17.335938 C 49.792969 17.460938 49.757812 17.585938 49.722656 17.714844 C 49.699219 17.8125 49.671875 17.914062 49.648438 18.011719 C 49.617188 18.132812 49.585938 18.25 49.558594 18.371094 C 49.535156 18.472656 49.511719 18.578125 49.488281 18.679688 C 49.460938 18.792969 49.433594 18.910156 49.410156 19.023438 C 49.386719 19.128906 49.367188 19.234375 49.347656 19.339844 C 49.324219 19.449219 49.300781 19.558594 49.28125 19.664062 C 49.257812 19.773438 49.242188 19.882812 49.222656 19.992188 C 49.203125 20.09375 49.183594 20.195312 49.167969 20.296875 C 49.148438 20.410156 49.132812 20.515625 49.117188 20.625 C 49.101562 20.722656 49.085938 20.820312 49.074219 20.914062 C 49.058594 21.027344 49.046875 21.136719 49.03125 21.25 C 49.023438 21.335938 49.011719 21.425781 49 21.511719 C 48.988281 21.628906 48.980469 21.742188 48.96875 21.855469 C 48.960938 21.933594 48.953125 22.011719 48.949219 22.089844 C 48.9375 22.214844 48.933594 22.332031 48.925781 22.453125 C 48.921875 22.519531 48.917969 22.582031 48.914062 22.644531 C 48.90625 22.824219 48.90625 23 48.90625 23.171875 C 48.90625 23.457031 48.917969 23.742188 48.9375 24.023438 C 48.941406 24.0625 48.941406 24.097656 48.945312 24.132812 C 48.964844 24.402344 49 24.664062 49.039062 24.925781 C 49.042969 24.96875 49.050781 25.015625 49.058594 25.058594 C 49.101562 25.316406 49.152344 25.574219 49.210938 25.828125 C 49.21875 25.863281 49.226562 25.894531 49.234375 25.929688 C 49.296875 26.195312 49.371094 26.453125 49.453125 26.710938 L 49.453125 26.714844 C 49.542969 26.988281 49.640625 27.253906 49.746094 27.515625 L 49.75 27.523438 C 49.855469 27.777344 49.972656 28.027344 50.09375 28.273438 L 50.109375 28.304688 C 50.234375 28.550781 50.371094 28.789062 50.511719 29.019531 L 50.511719 29.023438 C 51.8125 31.152344 53.804688 32.675781 56.109375 33.171875 C 56.136719 33.574219 56.171875 34.035156 56.191406 34.554688 C 56.203125 34.886719 56.21875 37.921875 56.234375 40.859375 C 49.082031 40.328125 42.96875 36.046875 39.832031 29.964844 C 41.269531 27.175781 42.082031 24.011719 42.082031 20.652344 C 42.082031 17.292969 41.269531 14.128906 39.832031 11.339844 C 43.183594 4.832031 49.941406 0.386719 57.734375 0.386719 C 65.667969 0.386719 72.527344 4.996094 75.816406 11.699219 C 74.5 14.390625 73.757812 17.421875 73.757812 20.628906 C 73.757812 23.84375 74.503906 26.882812 75.828125 29.582031 C 72.753906 35.867188 66.53125 40.316406 59.230469 40.859375 " fill-opacity="1" fill-rule="nonzero"/></g><g clip-path="url(#29e5b5c742)"><path fill="#eda332" d="M 23.425781 40.859375 C 23.441406 37.769531 23.460938 34.378906 23.476562 34.027344 C 23.496094 33.453125 23.539062 32.945312 23.5625 32.515625 C 26.457031 31.453125 28.609375 27.644531 28.652344 23.078125 L 28.644531 23.078125 C 28.644531 23.003906 28.652344 22.929688 28.644531 22.855469 C 28.234375 17.882812 27.820312 12.90625 27.40625 7.9375 C 27.332031 6.980469 27.066406 6.21875 26.828125 6.21875 C 26.824219 6.21875 26.824219 6.21875 26.824219 6.21875 C 26.582031 6.226562 26.355469 7.003906 26.320312 7.964844 C 26.125 12.945312 25.9375 17.933594 25.746094 22.917969 C 25.742188 22.972656 25.753906 23.023438 25.753906 23.078125 L 25.128906 23.078125 C 25.132812 23.015625 25.140625 22.957031 25.136719 22.894531 C 24.855469 17.910156 24.574219 12.929688 24.292969 7.953125 C 24.242188 6.992188 23.996094 6.21875 23.753906 6.214844 C 23.515625 6.214844 23.265625 6.988281 23.207031 7.945312 C 22.882812 12.921875 22.558594 17.902344 22.234375 22.882812 C 22.230469 22.949219 22.238281 23.011719 22.238281 23.078125 L 21.617188 23.078125 C 21.621094 23.019531 21.628906 22.960938 21.625 22.902344 C 21.367188 17.917969 21.109375 12.933594 20.851562 7.953125 C 20.800781 6.996094 20.5625 6.21875 20.320312 6.214844 C 20.078125 6.214844 19.832031 6.988281 19.761719 7.945312 C 19.417969 12.917969 19.070312 17.898438 18.722656 22.875 C 18.71875 22.945312 18.722656 23.011719 18.726562 23.078125 L 18.105469 23.078125 C 18.105469 23.023438 18.113281 22.972656 18.113281 22.917969 C 17.933594 18.296875 17.757812 13.667969 17.582031 9.046875 C 17.566406 8.6875 17.554688 8.324219 17.539062 7.964844 C 17.5 7.003906 17.277344 6.226562 17.03125 6.21875 C 16.789062 6.21875 16.53125 6.980469 16.453125 7.9375 C 16.039062 12.90625 15.621094 17.882812 15.210938 22.855469 C 15.207031 22.929688 15.210938 23.003906 15.214844 23.078125 L 15.207031 23.078125 C 15.210938 23.390625 15.222656 23.699219 15.246094 24.007812 C 15.253906 24.109375 15.265625 24.207031 15.273438 24.304688 C 15.292969 24.507812 15.316406 24.710938 15.34375 24.910156 C 15.359375 25.027344 15.378906 25.144531 15.398438 25.261719 C 15.425781 25.4375 15.457031 25.609375 15.492188 25.785156 C 15.519531 25.90625 15.542969 26.027344 15.574219 26.148438 C 15.609375 26.308594 15.652344 26.464844 15.695312 26.617188 C 15.726562 26.742188 15.761719 26.867188 15.800781 26.992188 C 15.839844 27.132812 15.890625 27.265625 15.9375 27.40625 C 15.984375 27.535156 16.023438 27.664062 16.070312 27.789062 L 16.085938 27.820312 C 16.242188 28.222656 16.417969 28.601562 16.609375 28.96875 C 16.640625 29.023438 16.667969 29.082031 16.695312 29.132812 C 16.789062 29.296875 16.882812 29.453125 16.980469 29.609375 C 17.007812 29.660156 17.039062 29.707031 17.070312 29.757812 C 17.175781 29.914062 17.28125 30.066406 17.390625 30.214844 C 17.417969 30.25 17.441406 30.28125 17.464844 30.3125 C 17.585938 30.472656 17.710938 30.625 17.839844 30.769531 L 17.847656 30.78125 C 18.566406 31.585938 19.394531 32.183594 20.296875 32.515625 C 20.3125 32.796875 20.335938 33.113281 20.359375 33.457031 C 20.359375 33.503906 20.363281 33.546875 20.367188 33.589844 C 20.375 33.730469 20.382812 33.878906 20.386719 34.027344 C 20.398438 34.378906 20.417969 37.769531 20.433594 40.859375 C 10.003906 40.085938 1.777344 31.339844 1.777344 20.652344 C 1.777344 9.460938 10.800781 0.386719 21.929688 0.386719 C 29.71875 0.386719 36.476562 4.832031 39.832031 11.339844 C 38.394531 14.128906 37.582031 17.292969 37.582031 20.652344 C 37.582031 24.011719 38.394531 27.175781 39.832031 29.964844 C 36.695312 36.046875 30.578125 40.328125 23.425781 40.859375 " fill-opacity="1" fill-rule="nonzero"/></g><path fill="#f5f6f5" d="M 39.832031 29.964844 C 38.394531 27.175781 37.582031 24.011719 37.582031 20.652344 C 37.582031 17.292969 38.394531 14.128906 39.832031 11.339844 C 41.269531 14.128906 42.082031 17.292969 42.082031 20.652344 C 42.082031 24.011719 41.269531 27.175781 39.832031 29.964844 " fill-opacity="1" fill-rule="nonzero"/><g clip-path="url(#0bd1502569)"><path fill="#ef048a" d="M 94.511719 40.878906 C 94.503906 39.734375 94.515625 38.660156 94.546875 37.707031 C 94.550781 37.578125 94.550781 37.082031 94.558594 36.398438 L 95.46875 36.398438 C 96.628906 36.398438 97.570312 35.453125 97.570312 34.28125 C 97.570312 34.28125 97.582031 5.097656 94.207031 5.097656 C 93.863281 5.097656 93.535156 5.195312 93.242188 5.351562 L 93.242188 5.355469 C 93.003906 5.480469 92.796875 5.648438 92.625 5.847656 L 92.5625 5.921875 C 92.519531 5.976562 92.476562 6.035156 92.4375 6.097656 C 92.382812 6.179688 92.332031 6.269531 92.289062 6.363281 C 92.273438 6.398438 92.265625 6.433594 92.25 6.472656 C 92.21875 6.554688 92.191406 6.636719 92.167969 6.726562 C 92.160156 6.761719 92.152344 6.800781 92.144531 6.835938 C 92.121094 6.960938 92.105469 7.082031 92.105469 7.210938 C 92.105469 7.210938 92.15625 37.417969 92.160156 37.707031 C 92.1875 38.644531 92.199219 39.695312 92.195312 40.820312 C 84.996094 40.207031 78.875 35.792969 75.828125 29.582031 C 77.144531 26.890625 77.886719 23.859375 77.886719 20.652344 C 77.886719 17.4375 77.140625 14.398438 75.816406 11.699219 C 79.101562 4.984375 85.96875 0.363281 93.910156 0.363281 C 105.039062 0.363281 114.0625 9.4375 114.0625 20.628906 C 114.0625 31.621094 105.359375 40.5625 94.511719 40.878906 " fill-opacity="1" fill-rule="nonzero"/></g><path fill="#ef048a" d="M 75.828125 29.582031 C 74.503906 26.882812 73.757812 23.84375 73.757812 20.628906 C 73.757812 17.421875 74.5 14.390625 75.816406 11.699219 C 77.140625 14.398438 77.886719 17.4375 77.886719 20.652344 C 77.886719 23.859375 77.144531 26.890625 75.828125 29.582031 " fill-opacity="1" fill-rule="nonzero"/></svg>