<svg xmlns="http://www.w3.org/2000/svg" xmlns:xlink="http://www.w3.org/1999/xlink" width="160" zoomAndPan="magnify" viewBox="0 0 120 44.999999" height="60" preserveAspectRatio="xMidYMid meet" version="1.0"><defs><g/><clipPath id="815e3ca5c2"><path d="M 37 15 L 43.613281 15 L 43.613281 27 L 37 27 Z M 37 15 " clip-rule="nonzero"/></clipPath><clipPath id="ca8575d1b0"><path d="M 4.5 18 L 9 18 L 9 29 L 4.5 29 Z M 4.5 18 " clip-rule="nonzero"/></clipPath><clipPath id="b3151ed827"><path d="M 9 0.90625 L 37 0.90625 L 37 28 L 9 28 Z M 9 0.90625 " clip-rule="nonzero"/></clipPath><clipPath id="6c31c815cf"><path d="M 11 32 L 37 32 L 37 43.933594 L 11 43.933594 Z M 11 32 " clip-rule="nonzero"/></clipPath></defs><g clip-path="url(#815e3ca5c2)"><path fill="#f68712" d="M 43.597656 15.269531 C 43.597656 15.269531 39.625 16.132812 39.730469 21.089844 C 39.835938 26.046875 37.359375 26.429688 37.359375 26.429688 C 39.328125 24.246094 37.230469 22.9375 37.664062 19.695312 C 38.359375 14.554688 43.597656 15.269531 43.597656 15.269531 " fill-opacity="1" fill-rule="nonzero"/></g><g clip-path="url(#ca8575d1b0)"><path fill="#f68712" d="M 6.257812 23.019531 C 6.089844 20.621094 5.300781 19.425781 4.515625 18.832031 C 6.75 19.066406 8.113281 20.632812 8.027344 22.402344 C 7.890625 25.160156 7.375 26.75 8.683594 28.5 C 8.683594 28.5 6.550781 27.199219 6.257812 23.019531 " fill-opacity="1" fill-rule="nonzero"/></g><path fill="#f68712" d="M 10.738281 9.15625 C 11.957031 7.085938 11.984375 5.65625 11.675781 4.71875 C 15.125 10.316406 9.539062 12.859375 9.621094 15.042969 C 9.621094 15.042969 8.605469 12.761719 10.738281 9.15625 " fill-opacity="1" fill-rule="nonzero"/><path fill="#ffffff" d="M 25.476562 18.058594 C 26.019531 17.621094 26.371094 16.949219 26.371094 16.191406 C 26.371094 14.871094 25.300781 13.800781 23.980469 13.800781 C 22.660156 13.800781 21.589844 14.871094 21.589844 16.191406 C 21.589844 16.949219 21.941406 17.621094 22.484375 18.058594 C 16.496094 18.746094 11.75 23.519531 11.089844 29.519531 L 13.808594 29.519531 C 14.503906 24.519531 18.792969 20.671875 23.980469 20.671875 C 29.167969 20.671875 33.457031 24.519531 34.152344 29.519531 L 36.871094 29.519531 C 36.210938 23.519531 31.464844 18.746094 25.476562 18.058594 " fill-opacity="1" fill-rule="nonzero"/><path fill="#ed1c24" d="M 21.496094 25.054688 C 21.289062 25.074219 20.863281 31.523438 20.863281 31.523438 C 20.835938 32.035156 20.460938 32.476562 19.953125 32.546875 C 19.332031 32.628906 18.792969 32.164062 18.757812 31.558594 C 18.757812 31.558594 18.332031 25.074219 18.125 25.054688 C 17.898438 25.035156 17.050781 31.710938 17.050781 31.710938 C 16.957031 32.664062 17.476562 33.523438 18.277344 33.914062 C 18.851562 34.195312 19.207031 34.785156 19.167969 35.421875 L 18.992188 38.679688 C 19.519531 39.019531 20.082031 39.308594 20.675781 39.539062 L 20.453125 35.421875 C 20.414062 34.785156 20.769531 34.195312 21.34375 33.914062 C 22.140625 33.523438 22.664062 32.664062 22.570312 31.710938 C 22.570312 31.710938 21.722656 25.035156 21.496094 25.054688 Z M 29.582031 31.488281 C 29.574219 31.691406 29.402344 31.847656 29.199219 31.835938 L 29.191406 31.835938 C 28.996094 31.824219 28.847656 31.660156 28.851562 31.464844 C 28.890625 29.921875 28.929688 28.378906 28.96875 26.835938 C 28.976562 26.613281 29.164062 26.441406 29.386719 26.453125 L 29.394531 26.453125 C 29.605469 26.46875 29.769531 26.648438 29.761719 26.863281 C 29.703125 28.40625 29.640625 29.949219 29.582031 31.488281 Z M 27.882812 31.429688 C 27.878906 31.625 27.71875 31.785156 27.519531 31.785156 L 27.515625 31.785156 C 27.316406 31.785156 27.15625 31.625 27.152344 31.429688 C 27.140625 29.882812 27.132812 28.339844 27.121094 26.792969 C 27.121094 26.574219 27.296875 26.398438 27.511719 26.398438 L 27.523438 26.398438 C 27.738281 26.398438 27.914062 26.574219 27.914062 26.792969 C 27.902344 28.339844 27.890625 29.882812 27.882812 31.429688 Z M 25.84375 31.835938 L 25.835938 31.835938 C 25.632812 31.847656 25.460938 31.691406 25.453125 31.488281 C 25.394531 29.949219 25.332031 28.40625 25.273438 26.863281 C 25.265625 26.648438 25.429688 26.46875 25.640625 26.453125 C 25.644531 26.453125 25.648438 26.453125 25.648438 26.453125 C 25.871094 26.441406 26.058594 26.613281 26.066406 26.835938 C 26.105469 28.378906 26.144531 29.921875 26.183594 31.464844 C 26.1875 31.660156 26.035156 31.824219 25.84375 31.835938 Z M 24.113281 25.121094 C 24.234375 27.269531 24.359375 29.417969 24.484375 31.566406 C 24.539062 32.535156 25.089844 33.332031 25.851562 33.804688 C 26.589844 34.257812 26.976562 35.105469 26.921875 35.972656 C 26.839844 37.230469 26.769531 38.488281 26.703125 39.746094 C 27.257812 39.570312 27.789062 39.347656 28.296875 39.074219 C 28.238281 38.042969 28.179688 37.007812 28.113281 35.972656 C 28.054688 35.105469 28.441406 34.261719 29.179688 33.804688 C 29.945312 33.332031 30.496094 32.535156 30.550781 31.566406 C 30.675781 29.417969 30.800781 27.269531 30.921875 25.121094 C 28.65625 24.878906 26.378906 24.878906 24.113281 25.121094 " fill-opacity="1" fill-rule="nonzero"/><g clip-path="url(#b3151ed827)"><path fill="#f68712" d="M 11.554688 24.929688 C 12.222656 23.546875 13.109375 22.296875 14.195312 21.207031 C 15.28125 20.113281 16.527344 19.21875 17.902344 18.542969 C 18.894531 18.054688 19.933594 17.691406 21.007812 17.457031 C 20.839844 17.0625 20.753906 16.632812 20.753906 16.191406 C 20.753906 14.410156 22.199219 12.960938 23.980469 12.960938 C 25.761719 12.960938 27.207031 14.410156 27.207031 16.191406 C 27.207031 16.632812 27.121094 17.0625 26.953125 17.457031 C 28.027344 17.691406 29.066406 18.054688 30.058594 18.542969 C 31.433594 19.21875 32.679688 20.113281 33.765625 21.207031 C 34.363281 21.804688 34.898438 22.457031 35.375 23.148438 C 35.054688 21.410156 34.855469 19.265625 35.460938 18.179688 C 36.644531 16.054688 37.074219 12.898438 35.855469 11.082031 C 35.054688 12.871094 33.820312 14.011719 32.949219 13.695312 C 31.984375 13.34375 31.699219 11.285156 32.605469 9.21875 C 34.09375 5.816406 29.316406 4.078125 33.847656 0.90625 C 33.847656 0.90625 25.527344 1.839844 26.074219 7.371094 C 26.691406 13.582031 19.539062 11.546875 22.503906 6.308594 C 19.65625 7.4375 18.914062 8.863281 19.757812 12.746094 C 20.628906 16.746094 17.023438 17.175781 15.503906 15.042969 C 13.863281 12.746094 15.519531 9.394531 15.519531 9.394531 C 10.011719 15.359375 8.792969 22.175781 10.597656 27.550781 C 10.824219 26.648438 11.144531 25.769531 11.554688 24.929688 " fill-opacity="1" fill-rule="nonzero"/></g><g clip-path="url(#6c31c815cf)"><path fill="#ed1c24" d="M 34.152344 32.386719 C 33.457031 37.386719 29.167969 41.234375 23.980469 41.234375 C 18.792969 41.234375 14.503906 37.386719 13.808594 32.386719 L 11.089844 32.386719 C 11.804688 38.882812 17.300781 43.933594 23.980469 43.933594 C 30.660156 43.933594 36.15625 38.882812 36.871094 32.386719 L 34.152344 32.386719 " fill-opacity="1" fill-rule="nonzero"/></g><g fill="#ed1c24" fill-opacity="1"><g transform="translate(41.521558, 32.006753)"><g><path d="M 5.054688 -6.164062 L 1.0625 -6.164062 L 0.445312 -5.664062 L 0.445312 -3.5 L 0.945312 -3 L 3.796875 -2.5 L 3.796875 -0.839844 L 2.207031 -0.839844 L 2.207031 -1.3125 L 0.445312 -1.3125 L 0.445312 -0.5 L 0.9375 0 L 5.054688 0 L 5.554688 -0.5 L 5.554688 -3.117188 L 5.089844 -3.582031 L 2.207031 -4.089844 L 2.207031 -5.316406 L 3.796875 -5.324219 L 3.796875 -4.851562 L 5.554688 -4.851562 L 5.554688 -5.664062 Z M 5.054688 -6.164062 "/></g></g></g><g fill="#ed1c24" fill-opacity="1"><g transform="translate(48.693008, 32.006753)"><g><path d="M 5.574219 -6.164062 L 3.8125 -6.164062 L 3.8125 -0.847656 L 2.222656 -0.847656 L 2.222656 -6.164062 L 0 -6.164062 L 0 -5.316406 L 0.464844 -5.316406 L 0.464844 -0.5 L 0.964844 0 L 5.074219 0 L 5.574219 -0.5 Z M 5.574219 -6.164062 "/></g></g></g><g fill="#ed1c24" fill-opacity="1"><g transform="translate(55.882319, 32.006753)"><g><path d="M 5.074219 -6.164062 L 0 -6.164062 L 0 -5.316406 L 0.464844 -5.316406 L 0.464844 0 L 2.742188 0 L 2.742188 -0.839844 L 2.222656 -0.839844 L 2.222656 -1.492188 L 5.074219 -1.492188 L 5.574219 -2 L 5.574219 -5.664062 Z M 3.8125 -5.324219 L 3.8125 -2.339844 L 2.222656 -2.339844 L 2.222656 -5.316406 Z M 3.8125 -5.324219 "/></g></g></g><g fill="#ed1c24" fill-opacity="1"><g transform="translate(63.07163, 32.006753)"><g><path d="M 4.617188 -6.164062 L 0 -6.164062 L 0 -5.316406 L 0.457031 -5.316406 L 0.457031 0 L 4.617188 0 L 4.617188 -1.4375 L 3.777344 -1.4375 L 3.777344 -0.839844 L 2.222656 -0.839844 L 2.222656 -2.8125 L 3.589844 -2.8125 L 3.589844 -3.664062 L 2.222656 -3.664062 L 2.222656 -5.316406 L 3.777344 -5.324219 L 3.777344 -4.726562 L 4.617188 -4.726562 Z M 4.617188 -6.164062 "/></g></g></g><g fill="#ed1c24" fill-opacity="1"><g transform="translate(68.858867, 32.006753)"><g><path d="M 5.066406 -6.164062 L 0 -6.164062 L 0 -5.316406 L 0.457031 -5.316406 L 0.457031 0 L 2.222656 0 L 2.222656 -2.574219 L 2.714844 -2.574219 L 3.539062 0 L 5.753906 0 L 5.753906 -0.839844 L 5.207031 -0.839844 L 4.554688 -2.574219 L 5.066406 -2.574219 L 5.574219 -3.082031 L 5.574219 -5.664062 Z M 3.8125 -5.316406 L 3.8125 -3.539062 L 2.222656 -3.539062 L 2.222656 -5.316406 Z M 3.8125 -5.316406 "/></g></g></g><g fill="#ed1c24" fill-opacity="1"><g transform="translate(76.048178, 32.006753)"><g/></g></g><g fill="#ed1c24" fill-opacity="1"><g transform="translate(79.540298, 32.006753)"><g><path d="M 5.539062 -6.164062 L 0 -6.164062 L 0 -4.851562 L 0.847656 -4.851562 L 0.847656 -5.316406 L 1.894531 -5.316406 L 1.894531 -0.847656 L 1.429688 -0.847656 L 1.429688 0 L 4.109375 0 L 4.109375 -0.847656 L 3.652344 -0.847656 L 3.652344 -5.316406 L 4.6875 -5.316406 L 4.6875 -4.851562 L 5.539062 -4.851562 Z M 5.539062 -6.164062 "/></g></g></g><g fill="#ed1c24" fill-opacity="1"><g transform="translate(86.247366, 32.006753)"><g><path d="M 3.671875 -6.164062 L 1.109375 -6.164062 L 1.109375 -5.324219 L 1.347656 -5.324219 L 0.0078125 0 L 1.082031 0 L 1.472656 -1.769531 L 2.859375 -1.769531 L 3.261719 0 L 5.476562 0 L 5.476562 -0.847656 L 5.039062 -0.847656 Z M 2.152344 -4.929688 L 2.679688 -2.617188 L 1.644531 -2.617188 Z M 2.152344 -4.929688 "/></g></g></g><g fill="#ed1c24" fill-opacity="1"><g transform="translate(92.882994, 32.006753)"><g><path d="M 5.054688 -6.164062 L 1.0625 -6.164062 L 0.445312 -5.664062 L 0.445312 -3.5 L 0.945312 -3 L 3.796875 -2.5 L 3.796875 -0.839844 L 2.207031 -0.839844 L 2.207031 -1.3125 L 0.445312 -1.3125 L 0.445312 -0.5 L 0.9375 0 L 5.054688 0 L 5.554688 -0.5 L 5.554688 -3.117188 L 5.089844 -3.582031 L 2.207031 -4.089844 L 2.207031 -5.316406 L 3.796875 -5.324219 L 3.796875 -4.851562 L 5.554688 -4.851562 L 5.554688 -5.664062 Z M 5.054688 -6.164062 "/></g></g></g><g fill="#ed1c24" fill-opacity="1"><g transform="translate(100.054447, 32.006753)"><g><path d="M 5.539062 -6.164062 L 0 -6.164062 L 0 -4.851562 L 0.847656 -4.851562 L 0.847656 -5.316406 L 1.894531 -5.316406 L 1.894531 -0.847656 L 1.429688 -0.847656 L 1.429688 0 L 4.109375 0 L 4.109375 -0.847656 L 3.652344 -0.847656 L 3.652344 -5.316406 L 4.6875 -5.316406 L 4.6875 -4.851562 L 5.539062 -4.851562 Z M 5.539062 -6.164062 "/></g></g></g><g fill="#ed1c24" fill-opacity="1"><g transform="translate(106.761515, 32.006753)"><g><path d="M 5.574219 -6.164062 L 3.8125 -6.164062 L 3.8125 -2.625 L 2.222656 -2.625 L 2.222656 -6.164062 L 0 -6.164062 L 0 -5.316406 L 0.464844 -5.316406 L 0.464844 -2.285156 L 0.964844 -1.777344 L 3.8125 -1.777344 L 3.8125 -0.847656 L 2.222656 -0.847656 L 2.222656 -1.3125 L 0.464844 -1.3125 L 0.464844 -0.5 L 0.964844 0 L 5.074219 0 L 5.574219 -0.5 Z M 5.574219 -6.164062 "/></g></g></g><g fill="#ffffff" fill-opacity="1"><g transform="translate(57.750962, 38.274557)"><g><path d="M 0.90625 -1.265625 L 0.90625 0 L 0.234375 0 L 0.234375 -3.109375 L 1.4375 -3.109375 C 1.832031 -3.109375 2.03125 -2.894531 2.03125 -2.46875 L 2.03125 -2.109375 C 2.03125 -1.859375 1.9375 -1.695312 1.75 -1.625 C 1.914062 -1.5625 2 -1.429688 2 -1.234375 L 2 0 L 1.328125 0 L 1.328125 -1.171875 C 1.328125 -1.234375 1.296875 -1.265625 1.234375 -1.265625 Z M 0.90625 -2.640625 L 0.90625 -1.734375 L 1.265625 -1.734375 C 1.296875 -1.734375 1.316406 -1.742188 1.328125 -1.765625 C 1.347656 -1.785156 1.359375 -1.8125 1.359375 -1.84375 L 1.359375 -2.546875 C 1.359375 -2.578125 1.347656 -2.597656 1.328125 -2.609375 C 1.316406 -2.628906 1.296875 -2.640625 1.265625 -2.640625 Z M 0.90625 -2.640625 "/></g></g></g><g fill="#ffffff" fill-opacity="1"><g transform="translate(61.401712, 38.274557)"><g><path d="M 0.90625 -0.5625 L 1.65625 -0.5625 L 1.65625 0 L 0.234375 0 L 0.234375 -3.109375 L 1.65625 -3.109375 L 1.65625 -2.5625 L 0.90625 -2.5625 L 0.90625 -1.828125 L 1.609375 -1.828125 L 1.609375 -1.296875 L 0.90625 -1.296875 Z M 0.90625 -0.5625 "/></g></g></g><g fill="#ffffff" fill-opacity="1"><g transform="translate(64.635209, 38.274557)"><g><path d="M 1.96875 -2.28125 L 1.328125 -2.28125 L 1.328125 -2.53125 C 1.328125 -2.5625 1.316406 -2.582031 1.296875 -2.59375 C 1.273438 -2.613281 1.253906 -2.625 1.234375 -2.625 L 0.96875 -2.625 C 0.945312 -2.625 0.925781 -2.613281 0.90625 -2.59375 C 0.882812 -2.582031 0.875 -2.5625 0.875 -2.53125 L 0.875 -1.984375 C 0.875 -1.953125 0.882812 -1.925781 0.90625 -1.90625 C 0.925781 -1.894531 0.945312 -1.890625 0.96875 -1.890625 L 1.40625 -1.890625 C 1.800781 -1.878906 2 -1.664062 2 -1.25 L 2 -0.578125 C 2 -0.160156 1.800781 0.046875 1.40625 0.046875 L 0.828125 0.046875 C 0.429688 0.046875 0.234375 -0.160156 0.234375 -0.578125 L 0.234375 -0.90625 L 0.875 -0.90625 L 0.875 -0.5625 C 0.875 -0.53125 0.882812 -0.503906 0.90625 -0.484375 C 0.925781 -0.472656 0.945312 -0.46875 0.96875 -0.46875 L 1.265625 -0.46875 C 1.296875 -0.46875 1.316406 -0.472656 1.328125 -0.484375 C 1.347656 -0.503906 1.359375 -0.53125 1.359375 -0.5625 L 1.359375 -1.171875 C 1.359375 -1.191406 1.347656 -1.210938 1.328125 -1.234375 C 1.316406 -1.253906 1.296875 -1.265625 1.265625 -1.265625 L 0.828125 -1.265625 C 0.429688 -1.265625 0.234375 -1.476562 0.234375 -1.90625 L 0.234375 -2.515625 C 0.234375 -2.941406 0.429688 -3.15625 0.828125 -3.15625 L 1.359375 -3.15625 C 1.765625 -3.15625 1.96875 -2.941406 1.96875 -2.515625 Z M 1.96875 -2.28125 "/></g></g></g><g fill="#ffffff" fill-opacity="1"><g transform="translate(68.261979, 38.274557)"><g><path d="M 0.0625 -2.53125 L 0.0625 -3.109375 L 1.734375 -3.109375 L 1.734375 -2.53125 L 1.234375 -2.53125 L 1.234375 0 L 0.5625 0 L 0.5625 -2.53125 Z M 0.0625 -2.53125 "/></g></g></g><g fill="#ffffff" fill-opacity="1"><g transform="translate(71.500276, 38.274557)"><g><path d="M 1.46875 -3.15625 C 1.863281 -3.15625 2.0625 -2.941406 2.0625 -2.515625 L 2.0625 0 L 1.390625 0 L 1.390625 -1.046875 L 0.90625 -1.046875 L 0.90625 0 L 0.234375 0 L 0.234375 -2.515625 C 0.234375 -2.941406 0.429688 -3.15625 0.828125 -3.15625 Z M 0.90625 -1.5625 L 1.390625 -1.5625 L 1.390625 -2.59375 C 1.390625 -2.625 1.378906 -2.648438 1.359375 -2.671875 C 1.347656 -2.691406 1.332031 -2.703125 1.3125 -2.703125 L 1 -2.703125 C 0.976562 -2.703125 0.957031 -2.691406 0.9375 -2.671875 C 0.914062 -2.648438 0.90625 -2.625 0.90625 -2.59375 Z M 0.90625 -1.5625 "/></g></g></g><g fill="#ffffff" fill-opacity="1"><g transform="translate(75.256539, 38.274557)"><g><path d="M 1.34375 -3.109375 L 2.015625 -3.109375 L 2.015625 -0.578125 C 2.015625 -0.160156 1.816406 0.046875 1.421875 0.046875 L 0.828125 0.046875 C 0.429688 0.046875 0.234375 -0.160156 0.234375 -0.578125 L 0.234375 -3.109375 L 0.90625 -3.109375 L 0.90625 -0.53125 C 0.90625 -0.5 0.910156 -0.472656 0.921875 -0.453125 C 0.941406 -0.441406 0.96875 -0.4375 1 -0.4375 L 1.25 -0.4375 C 1.28125 -0.4375 1.300781 -0.441406 1.3125 -0.453125 C 1.332031 -0.472656 1.34375 -0.5 1.34375 -0.53125 Z M 1.34375 -3.109375 "/></g></g></g><g fill="#ffffff" fill-opacity="1"><g transform="translate(78.926474, 38.274557)"><g><path d="M 0.90625 -1.265625 L 0.90625 0 L 0.234375 0 L 0.234375 -3.109375 L 1.4375 -3.109375 C 1.832031 -3.109375 2.03125 -2.894531 2.03125 -2.46875 L 2.03125 -2.109375 C 2.03125 -1.859375 1.9375 -1.695312 1.75 -1.625 C 1.914062 -1.5625 2 -1.429688 2 -1.234375 L 2 0 L 1.328125 0 L 1.328125 -1.171875 C 1.328125 -1.234375 1.296875 -1.265625 1.234375 -1.265625 Z M 0.90625 -2.640625 L 0.90625 -1.734375 L 1.265625 -1.734375 C 1.296875 -1.734375 1.316406 -1.742188 1.328125 -1.765625 C 1.347656 -1.785156 1.359375 -1.8125 1.359375 -1.84375 L 1.359375 -2.546875 C 1.359375 -2.578125 1.347656 -2.597656 1.328125 -2.609375 C 1.316406 -2.628906 1.296875 -2.640625 1.265625 -2.640625 Z M 0.90625 -2.640625 "/></g></g></g><g fill="#ffffff" fill-opacity="1"><g transform="translate(82.577224, 38.274557)"><g><path d="M 1.46875 -3.15625 C 1.863281 -3.15625 2.0625 -2.941406 2.0625 -2.515625 L 2.0625 0 L 1.390625 0 L 1.390625 -1.046875 L 0.90625 -1.046875 L 0.90625 0 L 0.234375 0 L 0.234375 -2.515625 C 0.234375 -2.941406 0.429688 -3.15625 0.828125 -3.15625 Z M 0.90625 -1.5625 L 1.390625 -1.5625 L 1.390625 -2.59375 C 1.390625 -2.625 1.378906 -2.648438 1.359375 -2.671875 C 1.347656 -2.691406 1.332031 -2.703125 1.3125 -2.703125 L 1 -2.703125 C 0.976562 -2.703125 0.957031 -2.691406 0.9375 -2.671875 C 0.914062 -2.648438 0.90625 -2.625 0.90625 -2.59375 Z M 0.90625 -1.5625 "/></g></g></g><g fill="#ffffff" fill-opacity="1"><g transform="translate(86.333487, 38.274557)"><g><path d="M 2.015625 0 L 1.34375 0 L 1.34375 -2.578125 C 1.34375 -2.597656 1.332031 -2.617188 1.3125 -2.640625 C 1.300781 -2.660156 1.28125 -2.671875 1.25 -2.671875 L 1 -2.671875 C 0.96875 -2.671875 0.941406 -2.660156 0.921875 -2.640625 C 0.910156 -2.617188 0.90625 -2.597656 0.90625 -2.578125 L 0.90625 0 L 0.234375 0 L 0.234375 -2.515625 C 0.234375 -2.941406 0.429688 -3.15625 0.828125 -3.15625 L 1.421875 -3.15625 C 1.816406 -3.15625 2.015625 -2.941406 2.015625 -2.515625 Z M 2.015625 0 "/></g></g></g><g fill="#ffffff" fill-opacity="1"><g transform="translate(89.993827, 38.274557)"><g><path d="M 0.0625 -2.53125 L 0.0625 -3.109375 L 1.734375 -3.109375 L 1.734375 -2.53125 L 1.234375 -2.53125 L 1.234375 0 L 0.5625 0 L 0.5625 -2.53125 Z M 0.0625 -2.53125 "/></g></g></g></svg>