<svg xmlns="http://www.w3.org/2000/svg" xmlns:xlink="http://www.w3.org/1999/xlink" width="160" zoomAndPan="magnify" viewBox="0 0 120 119.999999" height="160" preserveAspectRatio="xMidYMid meet" version="1.0"><defs><clipPath id="378e2bc019"><path d="M 99 39 L 116.535156 39 L 116.535156 71 L 99 71 Z M 99 39 " clip-rule="nonzero"/></clipPath><clipPath id="b84c10e46a"><path d="M 8.535156 49 L 21 49 L 21 76 L 8.535156 76 Z M 8.535156 49 " clip-rule="nonzero"/></clipPath><clipPath id="d1aa7cc9c9"><path d="M 26 86 L 98 86 L 98 118.5 L 26 118.5 Z M 26 86 " clip-rule="nonzero"/></clipPath></defs><g clip-path="url(#378e2bc019)"><path fill="#f68712" d="M 116.492188 39.550781 C 116.492188 39.550781 105.523438 41.925781 105.808594 55.582031 C 106.097656 69.238281 99.257812 70.292969 99.257812 70.292969 C 104.703125 64.28125 98.902344 60.667969 100.109375 51.746094 C 102.023438 37.582031 116.492188 39.550781 116.492188 39.550781 " fill-opacity="1" fill-rule="nonzero"/></g><g clip-path="url(#b84c10e46a)"><path fill="#f68712" d="M 13.398438 60.898438 C 12.933594 54.296875 10.753906 51.003906 8.582031 49.371094 C 14.75 50.011719 18.519531 54.328125 18.277344 59.195312 C 17.902344 66.789062 16.480469 71.171875 20.085938 75.988281 C 20.085938 75.988281 14.207031 72.40625 13.398438 60.898438 " fill-opacity="1" fill-rule="nonzero"/></g><path fill="#f68712" d="M 25.757812 22.714844 C 29.132812 17.019531 29.210938 13.074219 28.355469 10.5 C 37.878906 25.917969 22.449219 32.917969 22.679688 38.929688 C 22.679688 38.929688 19.878906 32.644531 25.757812 22.714844 " fill-opacity="1" fill-rule="nonzero"/><path fill="#ffffff" d="M 66.449219 47.238281 C 67.957031 46.027344 68.921875 44.175781 68.921875 42.097656 C 68.921875 38.457031 65.96875 35.507812 62.324219 35.507812 C 58.679688 35.507812 55.726562 38.457031 55.726562 42.097656 C 55.726562 44.175781 56.691406 46.027344 58.199219 47.238281 C 41.664062 49.128906 28.554688 62.269531 26.738281 78.804688 L 34.238281 78.804688 C 36.160156 65.03125 48.003906 54.433594 62.324219 54.433594 C 76.648438 54.433594 88.488281 65.03125 90.410156 78.804688 L 97.910156 78.804688 C 96.09375 62.269531 82.984375 49.128906 66.449219 47.238281 " fill-opacity="1" fill-rule="nonzero"/><path fill="#ed1c24" d="M 55.464844 66.503906 C 54.890625 66.558594 53.71875 84.320312 53.71875 84.320312 C 53.640625 85.726562 52.609375 86.949219 51.210938 87.132812 C 49.492188 87.363281 47.996094 86.085938 47.90625 84.414062 C 47.90625 84.414062 46.730469 66.558594 46.152344 66.503906 C 45.527344 66.445312 43.1875 84.832031 43.1875 84.832031 C 42.929688 87.457031 44.371094 89.824219 46.578125 90.898438 C 48.164062 91.675781 49.144531 93.300781 49.039062 95.058594 L 48.554688 104.023438 C 50.007812 104.964844 51.5625 105.765625 53.195312 106.398438 L 52.582031 95.058594 C 52.476562 93.300781 53.457031 91.675781 55.042969 90.898438 C 57.25 89.824219 58.691406 87.457031 58.433594 84.832031 C 58.433594 84.832031 56.09375 66.445312 55.464844 66.503906 Z M 77.789062 84.226562 C 77.765625 84.785156 77.292969 85.214844 76.734375 85.179688 L 76.714844 85.179688 C 76.179688 85.148438 75.761719 84.699219 75.777344 84.160156 C 75.882812 79.910156 75.992188 75.660156 76.101562 71.410156 C 76.117188 70.796875 76.636719 70.320312 77.246094 70.359375 L 77.269531 70.359375 C 77.859375 70.394531 78.3125 70.894531 78.289062 71.480469 C 78.121094 75.730469 77.953125 79.980469 77.789062 84.226562 Z M 73.09375 84.054688 C 73.09375 84.601562 72.648438 85.042969 72.101562 85.042969 L 72.082031 85.042969 C 71.53125 85.042969 71.089844 84.601562 71.085938 84.054688 C 71.054688 79.800781 71.027344 75.546875 70.996094 71.292969 C 70.992188 70.691406 71.476562 70.203125 72.078125 70.203125 L 72.101562 70.203125 C 72.703125 70.203125 73.1875 70.691406 73.183594 71.292969 C 73.15625 75.546875 73.125 79.800781 73.09375 84.054688 Z M 67.464844 85.179688 L 67.445312 85.179688 C 66.890625 85.214844 66.414062 84.785156 66.390625 84.226562 C 66.226562 79.980469 66.058594 75.730469 65.894531 71.480469 C 65.871094 70.894531 66.320312 70.394531 66.910156 70.359375 C 66.917969 70.359375 66.925781 70.359375 66.933594 70.359375 C 67.542969 70.320312 68.066406 70.800781 68.078125 71.410156 C 68.1875 75.660156 68.296875 79.910156 68.402344 84.164062 C 68.417969 84.699219 68.003906 85.148438 67.464844 85.179688 Z M 62.6875 66.6875 C 63.027344 72.605469 63.371094 78.523438 63.710938 84.4375 C 63.871094 87.109375 65.390625 89.304688 67.496094 90.601562 C 69.53125 91.855469 70.601562 94.183594 70.445312 96.570312 C 70.222656 100.03125 70.023438 103.496094 69.84375 106.960938 C 71.371094 106.484375 72.839844 105.867188 74.238281 105.121094 C 74.082031 102.269531 73.917969 99.417969 73.734375 96.570312 C 73.578125 94.183594 74.644531 91.855469 76.683594 90.601562 C 78.789062 89.304688 80.308594 87.109375 80.46875 84.4375 C 80.808594 78.523438 81.152344 72.605469 81.492188 66.6875 C 75.234375 66.015625 68.945312 66.015625 62.6875 66.6875 " fill-opacity="1" fill-rule="nonzero"/><path fill="#f68712" d="M 28.015625 66.152344 C 29.859375 62.355469 32.316406 58.90625 35.308594 55.902344 C 38.304688 52.898438 41.746094 50.429688 45.542969 48.570312 C 48.28125 47.226562 51.15625 46.226562 54.117188 45.574219 C 53.65625 44.492188 53.414062 43.3125 53.414062 42.097656 C 53.414062 37.191406 57.410156 33.199219 62.324219 33.199219 C 67.238281 33.199219 71.238281 37.191406 71.238281 42.097656 C 71.238281 43.3125 70.992188 44.492188 70.53125 45.574219 C 73.496094 46.226562 76.367188 47.226562 79.105469 48.570312 C 82.902344 50.429688 86.34375 52.898438 89.339844 55.902344 C 90.988281 57.554688 92.472656 59.347656 93.785156 61.253906 C 92.894531 56.460938 92.355469 50.558594 94.019531 47.570312 C 97.285156 41.714844 98.476562 33.027344 95.113281 28.019531 C 92.902344 32.949219 89.492188 36.09375 87.085938 35.21875 C 84.425781 34.246094 83.632812 28.578125 86.132812 22.882812 C 90.25 13.511719 77.050781 8.726562 89.5625 0 C 89.5625 0 66.597656 2.566406 68.109375 17.796875 C 69.804688 34.90625 50.058594 29.296875 58.246094 14.871094 C 50.386719 17.980469 48.339844 21.90625 50.671875 32.609375 C 53.070312 43.621094 43.121094 44.808594 38.921875 38.929688 C 34.394531 32.597656 38.96875 23.378906 38.96875 23.378906 C 23.757812 39.804688 20.390625 58.578125 25.375 73.375 C 26.007812 70.890625 26.886719 68.476562 28.015625 66.152344 " fill-opacity="1" fill-rule="nonzero"/><g clip-path="url(#d1aa7cc9c9)"><path fill="#ed1c24" d="M 90.410156 86.695312 C 88.488281 100.46875 76.648438 111.070312 62.324219 111.070312 C 48.003906 111.070312 36.160156 100.46875 34.238281 86.695312 L 26.738281 86.695312 C 28.707031 104.582031 43.886719 118.5 62.324219 118.5 C 80.765625 118.5 95.945312 104.582031 97.910156 86.695312 L 90.410156 86.695312 " fill-opacity="1" fill-rule="nonzero"/></g></svg>